HIERARCHY
ROOT Hips
{
	OFFSET 0.00 0.00 0.00
	CHANNELS 6 Xposition Yposition Zposition Xrotation Yrotation Zrotation
	JOINT LeftUpLeg
	{
		OFFSET 3.10215 0.00000 0.00000
		CHANNELS 3 Xrotation Yrotation Zrotation
		JOINT LeftLeg
		{
			OFFSET 0.00000 -16.83331 0.00000
			CHANNELS 3 Xrotation Yrotation Zrotation
			JOINT LeftFoot
			{
				OFFSET 0.00000 -15.53879 0.00000
				CHANNELS 3 Xrotation Yrotation Zrotation
				JOINT LeftToeBase
				{
					OFFSET 0.00000 -1.57366 5.87297
					CHANNELS 3 Xrotation Yrotation Zrotation
					End Site
					{
						OFFSET 0.00000 0.00000 2.95275
					}
				}
			}
		}
	}
	JOINT RightUpLeg
	{
		OFFSET -3.10215 0.00000 0.00000
		CHANNELS 3 Xrotation Yrotation Zrotation
		JOINT RightLeg
		{
			OFFSET 0.00000 -16.83331 0.00000
			CHANNELS 3 Xrotation Yrotation Zrotation
			JOINT RightFoot
			{
				OFFSET 0.00000 -15.53879 0.00000
				CHANNELS 3 Xrotation Yrotation Zrotation
				JOINT RightToeBase
				{
					OFFSET 0.00000 -1.57366 5.87297
					CHANNELS 3 Xrotation Yrotation Zrotation
					End Site
					{
						OFFSET 0.00000 0.00000 2.95275
					}
				}
			}
		}
	}
	JOINT Spine
	{
		OFFSET 0.00000 0.03937 0.00000
		CHANNELS 3 Xrotation Yrotation Zrotation
		JOINT Spine1
		{
			OFFSET 0.00000 8.31046 0.00000
			CHANNELS 3 Xrotation Yrotation Zrotation
			JOINT Neck
			{
				OFFSET 0.00000 6.25463 0.00000
				CHANNELS 3 Xrotation Yrotation Zrotation
				JOINT Head
				{
					OFFSET 0.00000 8.60817 0.00000
					CHANNELS 3 Xrotation Yrotation Zrotation
					End Site
					{
						OFFSET 0.00000 4.52755 0.00000
					}
				}
			}
			JOINT LeftShoulder
			{
				OFFSET 0.00000 6.25463 0.00000
				CHANNELS 3 Xrotation Yrotation Zrotation
				JOINT LeftArm
				{
					OFFSET 7.44857 -0.00003 0.00000
					CHANNELS 3 Xrotation Yrotation Zrotation
					JOINT LeftForeArm
					{
						OFFSET 10.73545 -0.00004 0.00000
						CHANNELS 3 Xrotation Yrotation Zrotation
						JOINT LeftHand
						{
							OFFSET 10.15840 -0.00004 0.00000
							CHANNELS 3 Xrotation Yrotation Zrotation
							JOINT LeftHandThumb
							{
								OFFSET 0.00000 0.00000 0.00000
								CHANNELS 3 Xrotation Yrotation Zrotation
								End Site
								{
									OFFSET 0.00000 0.00000 3.93700
								}
							}
							JOINT L_Wrist_End
							{
								OFFSET 3.93700 -0.00001 0.00000
								CHANNELS 3 Xrotation Yrotation Zrotation
							}
						}
					}
				}
			}
			JOINT RightShoulder
			{
				OFFSET 0.00000 6.25463 0.00000
				CHANNELS 3 Xrotation Yrotation Zrotation
				JOINT RightArm
				{
					OFFSET -7.44857 -0.00003 0.00000
					CHANNELS 3 Xrotation Yrotation Zrotation
					JOINT RightForeArm
					{
						OFFSET -10.73545 -0.00004 0.00000
						CHANNELS 3 Xrotation Yrotation Zrotation
						JOINT RightHand
						{
							OFFSET -10.15840 -0.00004 0.00000
							CHANNELS 3 Xrotation Yrotation Zrotation
							JOINT RightHandThumb
							{
								OFFSET 0.00000 0.00000 0.00000
								CHANNELS 3 Xrotation Yrotation Zrotation
								End Site
								{
									OFFSET 0.00000 0.00000 3.93700
								}
							}
							JOINT R_Wrist_End
							{
								OFFSET -5.39369 -0.00002 0.00000
								CHANNELS 3 Xrotation Yrotation Zrotation
							}
						}
					}
				}
			}
		}
	}
}
MOTION
Frames: 11
Frame Time: 0.008333
 40.3773 42.1503 -1.5174 97.7216 -81.6415 97.8731 -45.3200 2.8438 2.5688 90.8340 0.0000 0.0000 -15.4429 9.0597 -30.2922 -3.1661 -0.0000 -0.0000 -49.9763 3.2726 -2.7579 99.2776 -0.0000 0.0000 -25.1117 3.6150 7.0773 4.7372 0.0000 -0.0000 1.9783 2.6560 0.7794 2.5066 1.4372 1.2059 22.7854 14.0368 2.1671 -6.0771 -12.3241 0.9283 18.6347 -9.8678 30.2810 -18.7948 30.5490 -56.1356 -179.9968 -86.1848 -179.9966 -46.5169 22.2549 -0.5410 -0.0000 0.0000 -0.0000 -0.0000 0.0000 -0.0000 15.8225 6.5601 -23.3555 -22.1717 -3.3929 53.2698 -0.0008 75.9946 0.0007 -26.4404 52.2460 -8.4710 0.0000 0.0000 -0.0000 0.0000 0.0000 -0.0000
 40.3371 42.3941 -1.5473 96.7098 -80.8584 96.8039 -49.5845 2.7632 2.4939 96.7646 0.0000 0.0000 -18.4737 10.2925 -27.9278 -2.4928 -0.0000 0.0000 -54.1382 3.3165 -2.7682 104.3695 -0.0000 0.0000 -27.3628 3.6526 5.5570 4.3715 0.0000 -0.0000 2.8341 2.8221 0.9032 1.9426 1.5866 1.1981 22.7989 13.6920 2.3305 -6.3644 -12.1113 0.7270 18.6954 -9.6420 30.0680 -18.2303 29.7655 -56.6078 -179.9930 -88.2779 -179.9928 -48.2263 22.6333 -2.9395 0.0000 -0.0000 -0.0000 0.0000 -0.0000 -0.0000 15.9514 6.3323 -23.0458 -21.9014 -2.6652 52.9433 -0.0008 75.3247 0.0006 -24.7825 52.2564 -8.5810 -0.0000 -0.0000 0.0000 -0.0000 -0.0000 0.0000
 40.2822 42.6247 -1.5825 95.1643 -79.9835 95.2143 -53.8414 2.7348 2.3501 102.0564 0.0000 0.0000 -21.1811 10.9918 -25.3779 -2.1987 0.0000 -0.0000 -58.2371 3.3137 -2.8232 108.7665 0.0000 0.0000 -29.1444 3.5673 4.2954 3.9270 -0.0000 0.0000 3.2646 2.9439 1.0030 1.8815 1.7041 1.2005 22.6467 13.2843 2.5214 -6.5527 -11.8632 0.5289 18.7746 -9.4141 30.0231 -17.4918 28.6502 -57.2788 -0.0800 -89.8492 -0.0798 -49.9830 21.8601 -1.3922 -0.0000 0.0000 -0.0000 -0.0000 0.0000 -0.0000 15.9306 6.2096 -22.7744 -21.5852 -2.2293 52.6079 -0.0008 74.9277 0.0006 -22.6043 52.4620 -9.4017 -0.0000 -0.0000 -0.0000 -0.0000 -0.0000 -0.0000
 40.2191 42.8396 -1.6127 94.2344 -79.0095 94.2810 -58.0287 2.8281 2.2455 106.6785 0.0000 0.0000 -24.0332 11.5370 -22.8283 -1.9832 -0.0000 0.0000 -62.2662 3.4271 -2.8372 112.3473 -0.0000 0.0000 -30.5563 3.3742 3.2829 3.5179 0.0000 -0.0000 3.7003 3.0615 1.0463 1.6273 1.8152 1.2274 22.5219 12.9765 2.6540 -6.6307 -11.6639 0.3676 18.9873 -9.0795 29.8889 -16.6641 27.4970 -57.8780 -0.0069 -88.2444 -0.0067 -51.6500 21.0729 -0.4626 -0.0000 0.0000 0.0000 -0.0000 0.0000 0.0000 15.9404 6.0748 -22.4797 -21.3090 -1.9507 52.2778 -0.0008 74.7346 0.0006 -20.2426 52.5652 -9.9766 -0.0000 0.0000 -0.0000 -0.0000 0.0000 -0.0000
 40.1301 43.0373 -1.6405 93.9273 -78.1246 93.8653 -62.2748 3.4916 2.2562 111.7688 0.0000 0.0000 -34.1092 11.0314 -7.6869 14.2483 0.0000 -0.0000 -65.9854 3.4425 -2.7669 115.0210 0.0000 0.0000 -31.7750 3.1114 2.2293 3.3048 0.0000 -0.0000 4.2332 3.1748 1.1055 1.2490 1.9250 1.3954 22.5007 12.8138 2.7080 -6.8307 -11.5908 0.1461 19.2726 -8.7388 29.7750 -15.7262 26.6483 -58.5778 -0.0037 -86.7420 -0.0035 -52.1383 21.3115 -2.2333 -0.0000 0.0000 -0.0000 -0.0000 0.0000 -0.0000 16.0613 5.9933 -22.3355 -21.0396 -2.0088 52.1237 -0.0008 74.7131 0.0006 -17.8145 52.5633 -10.1548 0.0000 -0.0000 -0.0000 0.0000 -0.0000 -0.0000
 40.0103 43.2446 -1.6704 94.6878 -77.1266 94.5762 -66.0826 4.7626 2.4450 115.0360 0.0000 0.0000 -39.7344 7.9886 7.8710 22.8789 -0.0000 0.0000 -69.5385 3.5438 -2.4815 116.6902 -0.0000 0.0000 -32.8855 2.7169 1.1071 3.0568 0.0000 -0.0000 4.3327 3.3171 1.0869 1.4256 2.0677 1.4964 22.4132 12.6985 2.7475 -7.3437 -11.4379 -0.1637 19.4781 -8.4149 29.6381 -14.6170 25.8855 -59.3293 -0.0027 -85.5995 -0.0025 -51.9666 20.7304 -1.4938 0.0000 0.0000 -0.0000 0.0000 0.0000 -0.0000 16.1466 6.0500 -22.0742 -20.9100 -1.9131 51.8466 -0.0008 74.7284 0.0006 -14.4532 52.8935 -12.8911 0.0000 0.0000 -0.0000 0.0000 0.0000 -0.0000
 39.8735 43.4543 -1.6908 94.6801 -76.2745 94.5933 -69.4086 5.7906 2.4175 116.9973 -0.0000 0.0000 -42.1574 5.5540 18.9419 26.6223 -0.0000 0.0000 -72.6363 3.6259 -2.3929 117.4901 -0.0000 0.0000 -34.0038 2.1516 0.1173 2.6039 0.0000 0.0000 4.5306 3.3923 1.0740 1.6224 2.1419 1.5830 22.4375 12.6149 2.7467 -8.3034 -11.3761 -0.5244 19.7537 -8.1685 29.5312 -13.3895 25.1917 -60.2503 -0.0022 -84.5996 -0.0020 -50.8203 20.0278 -0.7688 0.0000 -0.0000 -0.0000 0.0000 -0.0000 -0.0000 16.2509 6.1015 -21.9485 -20.7497 -2.1632 51.8703 -0.0008 74.8463 0.0006 -11.1058 53.0450 -16.0388 0.0000 -0.0000 -0.0000 0.0000 -0.0000 -0.0000
 39.7216 43.6670 -1.7154 94.9222 -75.3944 94.9151 -72.4918 6.4523 2.4537 117.9565 -0.0000 0.0000 -43.6518 4.1809 24.6613 28.6059 0.0000 -0.0000 -75.4464 3.7407 -2.2246 117.4053 0.0000 0.0000 -34.8425 1.2999 -0.6611 2.1628 -0.0000 0.0000 4.7739 3.4489 0.9669 1.6439 2.1905 1.6304 22.5194 12.5725 2.7760 -9.3527 -11.1743 -0.8656 20.0156 -7.8811 29.5302 -12.0494 24.6443 -61.4431 -0.0019 -83.5979 -0.0017 -48.5779 19.7084 -0.3693 0.0000 0.0000 0.0000 0.0000 0.0000 0.0000 16.4994 6.2262 -21.8109 -20.7085 -2.6732 52.0231 -0.0008 75.0014 0.0006 -9.2798 52.9394 -17.8610 0.0000 -0.0000 0.0000 0.0000 -0.0000 0.0000
 39.5481 43.8832 -1.7351 94.5730 -74.6287 94.6496 -75.3135 6.6551 2.3352 118.1739 -0.0000 0.0000 -44.5887 4.0615 25.3187 28.4103 -0.0000 0.0000 -77.7180 3.7621 -2.2439 116.5308 -0.0000 0.0000 -35.5306 0.1756 -1.4615 1.8602 -0.0000 -0.0000 5.0822 3.4864 0.9026 1.5780 2.2222 1.7037 22.5987 12.4811 2.8146 -10.2609 -11.0422 -1.1821 20.2259 -7.7525 29.4918 -10.5488 24.0069 -62.7616 -0.0016 -82.6991 -0.0014 -45.6504 19.2817 0.5946 0.0000 0.0000 -0.0000 0.0000 0.0000 -0.0000 16.8427 6.2874 -21.6673 -20.7065 -3.4946 52.2614 -0.0008 75.1353 0.0006 -8.7872 52.9162 -18.3768 0.0000 -0.0000 0.0000 0.0000 -0.0000 0.0000
 39.3570 44.1069 -1.7551 94.5146 -73.8738 94.6927 -77.7546 6.7136 2.3106 117.4010 -0.0000 0.0000 -45.5472 3.3380 25.5434 29.6711 0.0000 -0.0000 -79.5144 3.8927 -2.1950 114.7337 -0.0000 0.0000 -35.8034 -0.8987 -1.9622 1.6776 0.0000 -0.0000 5.3949 3.4847 0.7905 1.4295 2.2127 1.7780 22.7452 12.5962 2.7441 -11.1506 -10.9304 -1.3335 20.3996 -7.6175 29.3217 -9.1392 23.3605 -64.0655 -0.0014 -81.5335 -0.0012 -43.4218 18.5585 1.3460 0.0000 0.0000 -0.0000 0.0000 0.0000 -0.0000 17.0251 6.4382 -21.4720 -20.6798 -4.1817 52.6223 -0.0008 74.9919 0.0006 -9.5006 52.9022 -18.0274 0.0000 -0.0000 -0.0000 0.0000 -0.0000 -0.0000
 39.1406 44.3263 -1.7737 94.0956 -73.2249 94.3686 -79.8082 6.5333 2.1844 116.0001 0.0000 0.0000 -45.8998 3.3217 24.2139 29.3591 -0.0000 0.0000 -80.7199 4.0141 -2.2496 112.3181 0.0000 0.0000 -36.0250 -2.0157 -2.5386 1.5737 -0.0000 0.0000 5.5999 3.4819 0.7027 1.4042 2.2083 1.8999 23.0600 12.6353 2.7148 -12.2938 -10.8501 -1.5593 20.5352 -7.5781 29.0928 -7.8846 22.6350 -65.4516 -0.0012 -80.2540 -0.0010 -42.0090 17.6283 3.3183 -0.0000 -0.0000 0.0000 -0.0000 -0.0000 0.0000 17.2911 6.4398 -21.2503 -20.7872 -4.8321 53.0273 -0.0008 74.5742 0.0006 -10.1928 53.2079 -17.6628 -0.0000 -0.0000 0.0000 -0.0000 -0.0000 0.0000
